<?xml version="1.0" encoding="UTF-8"?>
<svg xmlns="http://www.w3.org/2000/svg" width="512" height="512" viewBox="0 0 128 128"><g><path d="M68.129,52.309A22.156,22.156,0,1,0,45.974,30.152,22.182,22.182,0,0,0,68.129,52.309ZM56.107,44.4a7.026,7.026,0,0,1,7.009-6.727H73.143A7.026,7.026,0,0,1,80.151,44.4a18.582,18.582,0,0,1-24.044,0ZM68.129,11.5A18.62,18.62,0,0,1,83.081,41.262a10.534,10.534,0,0,0-9.938-7.093H63.116a10.535,10.535,0,0,0-9.939,7.093A18.621,18.621,0,0,1,68.129,11.5Z"/><path d="M68.129,31.2a6.928,6.928,0,0,0,6.92-6.921V22.244a6.92,6.92,0,1,0-13.84,0V24.28A6.928,6.928,0,0,0,68.129,31.2Zm-3.42-8.957a3.42,3.42,0,1,1,6.84,0V24.28a3.42,3.42,0,1,1-6.84,0Z"/><path d="M23.508,108.5H13.75a5.75,5.75,0,0,0,0,11.5h9.758a5.75,5.75,0,0,0,0-11.5Zm0,8H13.75a2.25,2.25,0,0,1,0-4.5h9.758a2.25,2.25,0,0,1,0,4.5Z"/><path d="M23.508,90.809H13.75a5.75,5.75,0,0,0,0,11.5h9.758a5.75,5.75,0,1,0,0-11.5Zm0,8H13.75a2.25,2.25,0,1,1,0-4.5h9.758a2.25,2.25,0,0,1,0,4.5Z"/><path d="M23.508,73.119H13.75a5.75,5.75,0,0,0,0,11.5h9.758a5.75,5.75,0,0,0,0-11.5Zm0,8H13.75a2.25,2.25,0,0,1,0-4.5h9.758a2.25,2.25,0,0,1,0,4.5Z"/><path d="M43.508,61H92.75a1.75,1.75,0,0,0,0-3.5H43.508a1.75,1.75,0,0,0,0,3.5Z"/><path d="M27.508,8H9.75a1.75,1.75,0,0,0,0,3.5H27.508a1.75,1.75,0,0,0,0-3.5Z"/><path d="M27.508,16.438H9.75a1.75,1.75,0,0,0,0,3.5H27.508a1.75,1.75,0,0,0,0-3.5Z"/><path d="M27.508,24.878H9.75a1.75,1.75,0,0,0,0,3.5H27.508a1.75,1.75,0,0,0,0-3.5Z"/><path d="M27.508,33.318H9.75a1.75,1.75,0,0,0,0,3.5H27.508a1.75,1.75,0,0,0,0-3.5Z"/><path d="M102.5,63.094V1.747A1.75,1.75,0,0,0,100.75,0h-99A1.75,1.75,0,0,0,0,1.747v124.5A1.75,1.75,0,0,0,1.75,128H95.009c.039,0,.077,0,.116,0A32.872,32.872,0,0,0,102.5,63.094ZM3.5,3.5H33.758v121H3.5Zm33.758,121V3.5H99V62.486a33.045,33.045,0,0,0-3.875-.236,32.666,32.666,0,0,0-16.572,4.5H43.508a1.75,1.75,0,0,0,0,3.5H73.667A33.168,33.168,0,0,0,68.411,76h-24.9a1.75,1.75,0,0,0,0,3.5h22.7a32.7,32.7,0,0,0-2.439,5.75h-7.7a1.75,1.75,0,1,0,0,3.5h6.806a32.766,32.766,0,0,0,1.75,18.624H57.688a1.75,1.75,0,0,0,0,3.5h8.588a33.052,33.052,0,0,0,3.9,5.623H64.344a1.75,1.75,0,1,0,0,3.5H73.3a1.76,1.76,0,0,0,.327-.033,32.982,32.982,0,0,0,6.76,4.533Zm57.867,0A29.375,29.375,0,1,1,124.5,95.125,29.409,29.409,0,0,1,95.125,124.5Z"/><path d="M109.981,83.294l-19.95,19.95-9.762-9.763a1.75,1.75,0,0,0-2.475,2.475l11,11a1.749,1.749,0,0,0,2.475,0l21.187-21.187a1.75,1.75,0,1,0-2.475-2.475Z"/></g></svg>
