<?xml version="1.0" encoding="UTF-8"?>
<svg xmlns="http://www.w3.org/2000/svg" width="512" height="512" viewBox="0 0 128 128"><g><path d="M21.79,39.3h84.42a1.75,1.75,0,1,0,0-3.5H21.79a1.75,1.75,0,0,0,0,3.5Z"/><path d="M21.79,47.422h84.42a1.75,1.75,0,1,0,0-3.5H21.79a1.75,1.75,0,1,0,0,3.5Z"/><path d="M21.79,55.547H55a1.75,1.75,0,0,0,0-3.5H21.79a1.75,1.75,0,1,0,0,3.5Z"/><path d="M51.75,71.8H44.812a1.764,1.764,0,0,0-.862.226l-4.767,2.7.253-6.545a1.749,1.749,0,0,0-3.126-1.146l-5.63,7.2.5-4.422a1.75,1.75,0,0,0-3.382-.8c-.693,1.888-4.714,5.546-7.086,7.409a1.75,1.75,0,0,0,2.161,2.753,54.9,54.9,0,0,0,4.141-3.635l-.5,4.444a1.75,1.75,0,0,0,3.117,1.273l6.1-7.8-.166,4.272a1.752,1.752,0,0,0,2.612,1.591l7.1-4.018H51.75a1.75,1.75,0,0,0,0-3.5Z"/><path d="M126.21,15.8H1.79a1.749,1.749,0,0,0-1.75,1.75V97.791a1.749,1.749,0,0,0,1.75,1.75h80.1v10.912a1.75,1.75,0,0,0,2.869,1.346l6.1-5.074,6.1,5.074a1.751,1.751,0,0,0,2.869-1.346V99.541h26.38a1.749,1.749,0,0,0,1.75-1.75V17.547A1.749,1.749,0,0,0,126.21,15.8ZM11.748,82.084H11.54V33.254h.208A5.756,5.756,0,0,0,17.5,27.5V27.3h93V27.5a5.756,5.756,0,0,0,5.75,5.75h.208v48.83h-.208a5.756,5.756,0,0,0-5.75,5.75v.207H99.83V79.75a1.829,1.829,0,0,0-.018-.183A13.515,13.515,0,1,0,81.9,79.56c0,.032-.009.063-.009.1v8.385H17.5v-.207A5.756,5.756,0,0,0,11.748,82.084Zm69.1-12.616A10.016,10.016,0,1,1,90.861,79.483,10.027,10.027,0,0,1,80.846,69.468ZM96.33,106.721,91.98,103.1a1.751,1.751,0,0,0-2.238,0l-4.349,3.618v-24.9a13.407,13.407,0,0,0,10.937,0Zm28.13-10.68H99.83v-4.5h12.422a1.749,1.749,0,0,0,1.75-1.75V87.834a2.253,2.253,0,0,1,2.25-2.25h1.958a1.749,1.749,0,0,0,1.75-1.75V31.5a1.749,1.749,0,0,0-1.75-1.75h-1.958A2.253,2.253,0,0,1,114,27.5V25.547a1.749,1.749,0,0,0-1.75-1.75h-96.5A1.749,1.749,0,0,0,14,25.547V27.5a2.253,2.253,0,0,1-2.25,2.25H9.79A1.749,1.749,0,0,0,8.04,31.5v52.33a1.749,1.749,0,0,0,1.75,1.75h1.958A2.253,2.253,0,0,1,14,87.834v1.957a1.749,1.749,0,0,0,1.75,1.75H81.893v4.5H3.54V19.3H124.46Z"/></g></svg>
