<svg height="512" viewBox="0 0 128 128" width="512" xmlns="http://www.w3.org/2000/svg"><g><path d="m64 0a64 64 0 1 0 64 64 64.073 64.073 0 0 0 -64-64zm0 124.5a60.5 60.5 0 1 1 60.5-60.5 60.569 60.569 0 0 1 -60.5 60.5z"/><path d="m64 8a56 56 0 1 0 56 56 56.063 56.063 0 0 0 -56-56zm0 108.5a52.5 52.5 0 1 1 52.5-52.5 52.56 52.56 0 0 1 -52.5 52.5z"/><path d="m64 25.247a24.274 24.274 0 0 0 -24.246 24.246 1.75 1.75 0 0 0 1.75 1.75h12.855a1.75 1.75 0 0 0 1.75-1.75 7.891 7.891 0 1 1 7.891 7.891h-6.428a1.75 1.75 0 0 0 -1.75 1.75v23.712a1.75 1.75 0 0 0 1.75 1.75h12.856a1.751 1.751 0 0 0 1.75-1.75v-10.527a24.246 24.246 0 0 0 -8.178-47.072zm5.927 44.13a1.748 1.748 0 0 0 -1.249 1.677v10.046h-9.356v-20.216h4.678a11.391 11.391 0 1 0 -11.257-13.141h-9.416a20.747 20.747 0 1 1 26.6 21.634z"/><path d="m70.428 88.036h-12.856a1.749 1.749 0 0 0 -1.75 1.75v11.214a1.75 1.75 0 0 0 1.75 1.75h12.856a1.751 1.751 0 0 0 1.75-1.75v-11.214a1.75 1.75 0 0 0 -1.75-1.75zm-1.75 11.211h-9.356v-7.711h9.356z"/></g></svg>